<svg preserveAspectRatio="none" width="100%" height="100%" overflow="visible" style="display: block;" viewBox="0 0 13.5 13.5" fill="none" xmlns="http://www.w3.org/2000/svg">
<path id="Vector" d="M13.5 9L9 13.497L0.7515 13.5C0.553114 13.5008 0.362527 13.4228 0.221614 13.2832C0.0807019 13.1435 0.000992321 12.9536 0 12.7552V0.74475C0 0.33375 0.33375 0 0.74475 0H12.7553C13.1663 0 13.5 0.342 13.5 0.7515V9V9ZM12 1.5H1.5V12H7.5V8.25C7.50002 8.0663 7.56747 7.889 7.68954 7.75172C7.81161 7.61444 7.97981 7.52674 8.16225 7.50525L8.25 7.5L12 7.49925V1.5ZM11.3783 8.99925L9 9V11.3768L11.3783 8.99925Z" fill="var(--fill-0, #A4A4A4)"/>
</svg>
